<svg width="58" height="24" viewBox="0 0 58 24" fill="none" xmlns="http://www.w3.org/2000/svg">
<path fill-rule="evenodd" clip-rule="evenodd" d="M47.3974 15.8357V23.5617H41.6988V23.4416C41.5276 23.5045 41.3473 23.565 41.1578 23.6233C40.3405 23.8744 39.4797 24 38.5756 24C37.498 24 36.4774 23.8059 35.514 23.4178C34.5505 23.0297 33.6989 22.4931 32.9592 21.8082C32.2194 21.1233 31.6372 20.331 31.2126 19.4315C30.7879 18.5319 30.5756 17.5753 30.5756 16.5616C30.5756 15.7465 30.7219 14.9532 31.0145 14.1818C30.6506 14.0788 30.3125 14.0273 30.0001 14.0273C29.5161 14.0273 29.0572 14.1529 28.6234 14.4041C28.1896 14.6552 27.8403 14.9817 27.5754 15.3835C27.3106 15.7853 27.1782 16.2191 27.1782 16.6849V23.5616H24L24.0001 23.5617H17.5069L16.1507 19.8083H7.84934L6.49317 23.5617H0L9.20551 0.958902H14.7946L21.4795 17.3728V9.53417H27.1782V11.5068C27.7626 10.7488 28.4453 10.1575 29.2261 9.7328C30.0069 9.30815 30.8129 9.09582 31.6439 9.09582C32.1828 9.09582 32.7535 9.18714 33.3563 9.36979C33.9115 9.53804 34.3776 9.7528 34.7546 10.014C34.9559 9.90868 35.1634 9.81037 35.377 9.71911C36.3496 9.30358 37.4067 9.09582 38.5482 9.09582C39.4432 9.09582 40.3108 9.2191 41.151 9.46568C41.3437 9.52223 41.5262 9.58142 41.6988 9.64325V0H47.3974V10.8494C48.0458 10.2923 48.7787 9.86077 49.596 9.55483C50.4134 9.24889 51.2422 9.09592 52.0824 9.09592C53.1509 9.09592 54.1075 9.33793 54.9522 9.82195C55.797 10.306 56.4659 10.9612 56.9591 11.7877C57.4522 12.6142 57.6988 13.5526 57.6988 14.6028V23.5617H52.0002V15.8357C52.0002 15.1325 51.7901 14.5685 51.37 14.1439C50.9499 13.7192 50.3928 13.5069 49.6988 13.5069C49.2422 13.5069 48.8403 13.6028 48.4933 13.7946C48.1463 13.9864 47.8769 14.2558 47.6851 14.6028C47.4933 14.9498 47.3974 15.3608 47.3974 15.8357ZM41.6988 13.2332V19.8626L41.2332 18.9041C41.0596 19.0228 40.8199 19.1301 40.514 19.226C40.208 19.3219 39.8724 19.3698 39.5071 19.3698C38.9135 19.3698 38.3975 19.2397 37.9592 18.9794C37.5208 18.7191 37.1852 18.3744 36.9523 17.9452C36.7194 17.5159 36.603 17.0502 36.603 16.5479C36.603 16.1461 36.7012 15.726 36.8975 15.2876C37.0939 14.8493 37.4044 14.4794 37.829 14.178C38.2537 13.8767 38.8039 13.726 39.4797 13.726C40.1921 13.726 40.7765 13.8812 41.2332 14.1917L41.6988 13.2332ZM9.90416 14.5206L12.0001 9.15076L14.096 14.5206H9.90416Z" fill="white"/>
</svg>
